<?xml version="1.0" standalone="no"?>
<!DOCTYPE svg PUBLIC "-//W3C//DTD SVG 20010904//EN"
 "http://www.w3.org/TR/2001/REC-SVG-20010904/DTD/svg10.dtd">
<svg version="1.0" xmlns="http://www.w3.org/2000/svg"
 width="512.000000pt" height="512.000000pt" viewBox="0 0 512.000000 512.000000"
 preserveAspectRatio="xMidYMid meet">
<metadata>
Created by potrace 1.11, written by Peter Selinger 2001-2013
</metadata>
<g transform="translate(0.000000,512.000000) scale(0.100000,-0.100000)"
fill="#000000" stroke="none">
<path d="M2475 5105 c-79 -30 -138 -112 -149 -206 -9 -78 66 -207 128 -223 21
-5 22 -11 21 -97 l0 -92 -50 -23 c-28 -12 -81 -37 -120 -54 -91 -42 -437 -201
-496 -229 -26 -12 -51 -33 -58 -47 -8 -17 -11 -152 -11 -447 l0 -422 -72 -54
-73 -53 -45 16 c-202 72 -388 -133 -291 -322 76 -148 268 -171 383 -44 40 44
64 122 55 180 -6 36 -5 38 68 90 l74 52 238 -109 c131 -60 272 -125 313 -144
111 -52 150 -67 170 -67 10 0 56 17 102 39 45 21 108 50 138 64 30 14 93 43
140 64 47 22 142 66 211 98 l127 57 58 -41 c95 -66 91 -60 89 -121 -8 -211
246 -327 393 -179 109 109 93 272 -35 362 -52 37 -148 48 -207 23 -21 -9 -41
-16 -45 -16 -6 0 -137 93 -151 107 -3 2 -5 198 -5 434 -1 413 -2 430 -20 449
-17 16 -170 89 -480 230 -27 13 -92 42 -142 66 l-93 43 0 89 c0 89 0 90 29
102 16 6 40 24 54 38 111 118 83 303 -56 374 -53 27 -140 32 -192 13z m138
-177 c38 -44 6 -111 -53 -111 -22 0 -39 7 -52 22 -59 74 43 161 105 89z m209
-704 c249 -114 287 -134 257 -134 -7 0 -27 -7 -44 -16 -16 -9 -82 -40 -145
-69 -63 -29 -163 -76 -222 -104 l-107 -50 -228 105 c-125 58 -245 113 -265
122 -21 9 -38 19 -38 22 1 8 503 238 522 239 10 1 131 -51 270 -115z m-807
-304 c75 -34 165 -75 320 -146 l141 -64 0 -345 c0 -190 -1 -345 -2 -345 -2 0
-371 168 -459 209 -33 16 -70 31 -82 35 -13 4 -24 10 -24 14 -4 20 -5 669 -1
679 3 10 10 9 30 -1 15 -7 50 -24 77 -36z m1195 -295 l0 -346 -77 -35 c-43
-20 -100 -46 -128 -59 -232 -107 -323 -148 -342 -156 l-23 -9 0 345 0 345 23
9 c12 5 54 24 92 42 177 82 450 208 453 209 1 0 2 -155 2 -345z m-1693 -618
c22 -22 23 -65 2 -90 -36 -47 -98 -36 -120 20 -10 26 9 76 33 87 19 8 71 -2
85 -17z m2195 -10 c24 -30 22 -56 -4 -84 -44 -47 -118 -20 -118 43 0 69 80 96
122 41z"/>
<path d="M3207 2025 l-675 -675 -638 638 c-352 351 -649 644 -662 651 -51 27
-112 -15 -112 -77 0 -24 19 -49 101 -131 l100 -101 -78 0 c-547 -3 -545 -2
-638 -50 -47 -24 -119 -91 -150 -140 -12 -19 -30 -60 -41 -90 -17 -52 -18
-101 -19 -873 -1 -725 1 -824 15 -880 30 -114 105 -204 218 -259 l67 -33 1840
-3 c1655 -2 1845 -1 1895 14 137 39 241 149 280 294 13 50 18 1606 5 1690 -22
145 -150 279 -307 319 -21 5 -179 8 -352 8 l-315 -2 27 28 c15 16 73 75 130
132 90 92 102 108 100 135 -3 45 -39 80 -81 80 -32 0 -79 -44 -710 -675z
m-2069 -861 l2 -1000 -202 1 c-208 1 -236 5 -288 48 -35 28 -70 81 -81 120 -8
30 -12 264 -12 832 1 435 3 802 6 816 6 29 29 75 49 99 63 72 113 85 338 85
l185 0 3 -1001z m841 508 c271 -271 503 -499 515 -507 11 -8 30 -12 41 -10 11
2 24 4 29 4 5 1 234 226 509 501 275 275 503 500 506 501 52 7 351 2 354 -6 2
-5 3 -455 3 -1000 l-1 -990 -1315 0 -1315 0 -1 995 c-1 547 0 997 1 1000 2 3
43 5 92 5 l88 0 494 -493z m2420 479 c49 -15 97 -56 128 -109 l28 -47 2 -810
c2 -893 4 -869 -60 -942 -57 -65 -94 -76 -254 -78 l-143 -2 0 997 c0 548 2
999 5 1001 9 9 261 1 294 -10z"/>
<path d="M800 1405 c-89 -18 -134 -54 -177 -144 -22 -45 -25 -63 -21 -115 21
-254 367 -311 470 -78 81 180 -78 377 -272 337z m83 -167 c32 -17 46 -39 46
-73 0 -72 -80 -109 -134 -62 -39 34 -41 82 -5 118 30 31 58 36 93 17z"/>
<path d="M4313 1501 c-18 -11 -35 -31 -38 -43 -2 -13 -4 -152 -2 -310 2 -282
2 -288 24 -310 29 -29 87 -28 117 1 20 21 21 30 21 321 1 288 0 300 -19 324
-29 35 -64 41 -103 17z"/>
</g>
</svg>
